M48
; DRILL file {KiCad 9.0.2} date 2026-01-27T19:39:36+0530
; FORMAT={-:-/ absolute / metric / decimal}
; #@! TF.CreationDate,2026-01-27T19:39:36+05:30
; #@! TF.GenerationSoftware,Kicad,Pcbnew,9.0.2
; #@! TF.FileFunction,Plated,1,2,PTH
FMAT,2
METRIC
; #@! TA.AperFunction,Plated,PTH,ComponentDrill
T1C0.787
; #@! TA.AperFunction,Plated,PTH,ComponentDrill
T2C0.800
; #@! TA.AperFunction,Plated,PTH,ComponentDrill
T3C0.900
; #@! TA.AperFunction,Plated,PTH,ComponentDrill
T4C2.200
%
G90
G05
T1
X98.56Y-136.98
X98.56Y-144.6
X101.1Y-136.98
X101.1Y-144.6
X103.64Y-136.98
X103.64Y-144.6
X106.18Y-136.98
X106.18Y-144.6
X108.72Y-136.98
X108.72Y-144.6
X111.26Y-136.98
X111.26Y-144.6
X113.8Y-136.98
X113.8Y-144.6
X116.34Y-136.98
X116.34Y-144.6
T2
X66.6Y-162.0
X68.6Y-162.0
X69.445Y-152.8
X71.445Y-152.8
X78.395Y-155.99
X78.395Y-158.53
X78.395Y-161.07
X78.395Y-163.61
X86.015Y-155.99
X86.015Y-158.53
X86.015Y-161.07
X86.015Y-163.61
X93.72Y-152.2
X95.59Y-158.8
X96.26Y-152.2
X98.8Y-152.2
X103.21Y-158.8
X119.78Y-128.6
X127.4Y-128.6
T3
X82.26Y-123.0
X84.8Y-123.0
X87.66Y-120.4
X87.66Y-125.2
X90.2Y-120.4
X90.2Y-125.2
X93.06Y-115.6
X93.06Y-120.4
X93.06Y-125.2
X93.06Y-130.0
X95.6Y-115.6
X95.6Y-120.4
X95.6Y-125.2
X95.6Y-130.0
X99.0Y-122.8
X101.54Y-122.8
X104.2Y-122.8
X106.74Y-122.8
X109.4Y-122.8
X111.94Y-122.8
T4
X96.85Y-165.4
X102.2Y-165.4
M30
