%TF.GenerationSoftware,KiCad,Pcbnew,9.0.2*%
%TF.CreationDate,2026-01-27T19:39:38+05:30*%
%TF.ProjectId,led,6c65642e-6b69-4636-9164-5f7063625858,rev?*%
%TF.SameCoordinates,Original*%
%TF.FileFunction,Copper,L2,Bot*%
%TF.FilePolarity,Positive*%
%FSLAX46Y46*%
G04 Gerber Fmt 4.6, Leading zero omitted, Abs format (unit mm)*
G04 Created by KiCad (PCBNEW 9.0.2) date 2026-01-27 19:39:38*
%MOMM*%
%LPD*%
G01*
G04 APERTURE LIST*
G04 Aperture macros list*
%AMRoundRect*
0 Rectangle with rounded corners*
0 $1 Rounding radius*
0 $2 $3 $4 $5 $6 $7 $8 $9 X,Y pos of 4 corners*
0 Add a 4 corners polygon primitive as box body*
4,1,4,$2,$3,$4,$5,$6,$7,$8,$9,$2,$3,0*
0 Add four circle primitives for the rounded corners*
1,1,$1+$1,$2,$3*
1,1,$1+$1,$4,$5*
1,1,$1+$1,$6,$7*
1,1,$1+$1,$8,$9*
0 Add four rect primitives between the rounded corners*
20,1,$1+$1,$2,$3,$4,$5,0*
20,1,$1+$1,$4,$5,$6,$7,0*
20,1,$1+$1,$6,$7,$8,$9,0*
20,1,$1+$1,$8,$9,$2,$3,0*%
G04 Aperture macros list end*
%TA.AperFunction,ComponentPad*%
%ADD10R,1.800000X1.800000*%
%TD*%
%TA.AperFunction,ComponentPad*%
%ADD11C,1.800000*%
%TD*%
%TA.AperFunction,ComponentPad*%
%ADD12C,1.440000*%
%TD*%
%TA.AperFunction,ComponentPad*%
%ADD13C,1.600000*%
%TD*%
%TA.AperFunction,ComponentPad*%
%ADD14RoundRect,0.250000X-0.550000X-0.550000X0.550000X-0.550000X0.550000X0.550000X-0.550000X0.550000X0*%
%TD*%
%TA.AperFunction,ComponentPad*%
%ADD15C,3.800000*%
%TD*%
%TA.AperFunction,ComponentPad*%
%ADD16R,1.295400X1.295400*%
%TD*%
%TA.AperFunction,ComponentPad*%
%ADD17C,1.295400*%
%TD*%
%TA.AperFunction,Conductor*%
%ADD18C,0.200000*%
%TD*%
G04 APERTURE END LIST*
D10*
%TO.P,D6,1,K*%
%TO.N,Net-(D1-K)*%
X93060000Y-115600000D03*
D11*
%TO.P,D6,2,A*%
%TO.N,Net-(D6-A)*%
X95600000Y-115600000D03*
%TD*%
D10*
%TO.P,D3,1,K*%
%TO.N,Net-(D1-K)*%
X99000000Y-122800000D03*
D11*
%TO.P,D3,2,A*%
%TO.N,Net-(D3-A)*%
X101540000Y-122800000D03*
%TD*%
D10*
%TO.P,D2,1,K*%
%TO.N,Net-(D1-K)*%
X104200000Y-122800000D03*
D11*
%TO.P,D2,2,A*%
%TO.N,Net-(D2-A)*%
X106740000Y-122800000D03*
%TD*%
D12*
%TO.P,RV1,1,1*%
%TO.N,Net-(U1-DIS)*%
X98800000Y-152200000D03*
%TO.P,RV1,2,2*%
X96260000Y-152200000D03*
%TO.P,RV1,3,3*%
%TO.N,TR*%
X93720000Y-152200000D03*
%TD*%
D10*
%TO.P,D8,1,K*%
%TO.N,Net-(D1-K)*%
X93060000Y-125200000D03*
D11*
%TO.P,D8,2,A*%
%TO.N,Net-(D8-A)*%
X95600000Y-125200000D03*
%TD*%
D10*
%TO.P,D9,1,K*%
%TO.N,Net-(D1-K)*%
X93060000Y-130000000D03*
D11*
%TO.P,D9,2,A*%
%TO.N,Net-(D9-A)*%
X95600000Y-130000000D03*
%TD*%
D10*
%TO.P,D10,1,K*%
%TO.N,Net-(D1-K)*%
X87660000Y-125200000D03*
D11*
%TO.P,D10,2,A*%
%TO.N,Net-(D10-A)*%
X90200000Y-125200000D03*
%TD*%
D13*
%TO.P,R1,1*%
%TO.N,+5V*%
X95590000Y-158800000D03*
%TO.P,R1,2*%
%TO.N,Net-(U1-DIS)*%
X103210000Y-158800000D03*
%TD*%
D10*
%TO.P,D1,1,K*%
%TO.N,Net-(D1-K)*%
X109400000Y-122800000D03*
D11*
%TO.P,D1,2,A*%
%TO.N,Net-(D1-A)*%
X111940000Y-122800000D03*
%TD*%
D10*
%TO.P,D5,1,K*%
%TO.N,Net-(D1-K)*%
X87660000Y-120400000D03*
D11*
%TO.P,D5,2,A*%
%TO.N,Net-(D5-A)*%
X90200000Y-120400000D03*
%TD*%
D10*
%TO.P,D4,1,K*%
%TO.N,Net-(D1-K)*%
X82260000Y-123000000D03*
D11*
%TO.P,D4,2,A*%
%TO.N,Net-(D4-A)*%
X84800000Y-123000000D03*
%TD*%
D13*
%TO.P,R2,1*%
%TO.N,Net-(D1-K)*%
X119780000Y-128600000D03*
%TO.P,R2,2*%
%TO.N,GND*%
X127400000Y-128600000D03*
%TD*%
D14*
%TO.P,C2,1*%
%TO.N,TR*%
X69444888Y-152800000D03*
D13*
%TO.P,C2,2*%
%TO.N,GND*%
X71444888Y-152800000D03*
%TD*%
D14*
%TO.P,C1,1*%
%TO.N,GND*%
X66600000Y-162000000D03*
D13*
%TO.P,C1,2*%
%TO.N,Net-(U1-CV)*%
X68600000Y-162000000D03*
%TD*%
D15*
%TO.P,H1,1,1*%
%TO.N,GND*%
X102200000Y-165400000D03*
%TD*%
D10*
%TO.P,D7,1,K*%
%TO.N,Net-(D1-K)*%
X93060000Y-120400000D03*
D11*
%TO.P,D7,2,A*%
%TO.N,Net-(D7-A)*%
X95600000Y-120400000D03*
%TD*%
D14*
%TO.P,U1,1,GND*%
%TO.N,GND*%
X78395000Y-155990000D03*
D13*
%TO.P,U1,2,TR*%
%TO.N,TR*%
X78395000Y-158530000D03*
%TO.P,U1,3,Q*%
%TO.N,OUT*%
X78395000Y-161070000D03*
%TO.P,U1,4,R*%
%TO.N,+5V*%
X78395000Y-163610000D03*
%TO.P,U1,5,CV*%
%TO.N,Net-(U1-CV)*%
X86015000Y-163610000D03*
%TO.P,U1,6,THR*%
%TO.N,TR*%
X86015000Y-161070000D03*
%TO.P,U1,7,DIS*%
%TO.N,Net-(U1-DIS)*%
X86015000Y-158530000D03*
%TO.P,U1,8,VCC*%
%TO.N,+5V*%
X86015000Y-155990000D03*
%TD*%
D16*
%TO.P,U2,1,Q5*%
%TO.N,Net-(D6-A)*%
X116340000Y-136980000D03*
D17*
%TO.P,U2,2,Q1*%
%TO.N,Net-(D2-A)*%
X113800000Y-136980000D03*
%TO.P,U2,3,Q0*%
%TO.N,Net-(D1-A)*%
X111260000Y-136980000D03*
%TO.P,U2,4,Q2*%
%TO.N,Net-(D3-A)*%
X108720000Y-136980000D03*
%TO.P,U2,5,Q6*%
%TO.N,Net-(D7-A)*%
X106180000Y-136980000D03*
%TO.P,U2,6,Q7*%
%TO.N,Net-(D8-A)*%
X103640000Y-136980000D03*
%TO.P,U2,7,Q3*%
%TO.N,Net-(D4-A)*%
X101100000Y-136980000D03*
%TO.P,U2,8,VSS*%
%TO.N,GND*%
X98560000Y-136980000D03*
%TO.P,U2,9,Q8*%
%TO.N,Net-(D9-A)*%
X98560000Y-144600000D03*
%TO.P,U2,10,Q4*%
%TO.N,Net-(D5-A)*%
X101100000Y-144600000D03*
%TO.P,U2,11,Q9*%
%TO.N,Net-(D10-A)*%
X103640000Y-144600000D03*
%TO.P,U2,12,Cout*%
%TO.N,unconnected-(U2-Cout-Pad12)*%
X106180000Y-144600000D03*
%TO.P,U2,13,CKEN*%
%TO.N,GND*%
X108720000Y-144600000D03*
%TO.P,U2,14,CLK*%
%TO.N,OUT*%
X111260000Y-144600000D03*
%TO.P,U2,15,Reset*%
%TO.N,GND*%
X113800000Y-144600000D03*
%TO.P,U2,16,VDD*%
%TO.N,+5V*%
X116340000Y-144600000D03*
%TD*%
D15*
%TO.P,H2,1,1*%
%TO.N,+5V*%
X96850000Y-165400000D03*
%TD*%
D18*
%TO.N,GND*%
X112851300Y-143651300D02*
X109668700Y-143651300D01*
X124635000Y-133765000D02*
X127400000Y-133765000D01*
X127400000Y-133765000D02*
X127400000Y-128600000D01*
X108720000Y-144600000D02*
X107771300Y-143651300D01*
X105231300Y-143651300D02*
X98560000Y-136980000D01*
X113800000Y-144600000D02*
X112851300Y-143651300D01*
X113800000Y-153800000D02*
X113800000Y-144600000D01*
X109668700Y-143651300D02*
X108720000Y-144600000D01*
X102200000Y-165400000D02*
X113800000Y-153800000D01*
X107771300Y-143651300D02*
X105231300Y-143651300D01*
X113800000Y-144600000D02*
X124635000Y-133765000D01*
%TO.N,TR*%
X93720000Y-153365000D02*
X86015000Y-161070000D01*
X93720000Y-152200000D02*
X93720000Y-153365000D01*
%TO.N,Net-(D1-K)*%
X93060000Y-125200000D02*
X93060000Y-130000000D01*
X119780000Y-128600000D02*
X115200000Y-128600000D01*
X99000000Y-122800000D02*
X99000000Y-120698471D01*
X102999000Y-121599000D02*
X100201000Y-121599000D01*
X108199000Y-121599000D02*
X105401000Y-121599000D01*
X93901529Y-115600000D02*
X93060000Y-115600000D01*
X109400000Y-122800000D02*
X108199000Y-121599000D01*
X93060000Y-130000000D02*
X92460000Y-130000000D01*
X93060000Y-120400000D02*
X93060000Y-125200000D01*
X87660000Y-125200000D02*
X87660000Y-120400000D01*
X100201000Y-121599000D02*
X99000000Y-122800000D01*
X84860000Y-120400000D02*
X82260000Y-123000000D01*
X105401000Y-121599000D02*
X104200000Y-122800000D01*
X104200000Y-122800000D02*
X102999000Y-121599000D01*
X92460000Y-130000000D02*
X87660000Y-125200000D01*
X99000000Y-120698471D02*
X93901529Y-115600000D01*
X115200000Y-128600000D02*
X109400000Y-122800000D01*
X87660000Y-120400000D02*
X84860000Y-120400000D01*
X93060000Y-115600000D02*
X93060000Y-120400000D01*
%TO.N,+5V*%
X99051000Y-167601000D02*
X103111685Y-167601000D01*
X116340000Y-154372685D02*
X116340000Y-144600000D01*
X96850000Y-165400000D02*
X98305000Y-165400000D01*
X96850000Y-165400000D02*
X99051000Y-167601000D01*
X103111685Y-167601000D02*
X116340000Y-154372685D01*
%TD*%
M02*
