%TF.GenerationSoftware,KiCad,Pcbnew,9.0.2*%
%TF.CreationDate,2026-01-27T19:39:38+05:30*%
%TF.ProjectId,led,6c65642e-6b69-4636-9164-5f7063625858,rev?*%
%TF.SameCoordinates,Original*%
%TF.FileFunction,Legend,Bot*%
%TF.FilePolarity,Positive*%
%FSLAX46Y46*%
G04 Gerber Fmt 4.6, Leading zero omitted, Abs format (unit mm)*
G04 Created by KiCad (PCBNEW 9.0.2) date 2026-01-27 19:39:38*
%MOMM*%
%LPD*%
G01*
G04 APERTURE LIST*
%ADD10C,0.100000*%
G04 APERTURE END LIST*
D10*
G36*
X124000000Y-159945136D02*
G01*
X123726570Y-159945136D01*
X123726570Y-160218688D01*
X124000000Y-160218688D01*
X124000000Y-159945136D01*
G37*
G36*
X123726448Y-159945136D02*
G01*
X123453018Y-159945136D01*
X123453018Y-160218688D01*
X123726448Y-160218688D01*
X123726448Y-159945136D01*
G37*
G36*
X123452896Y-159945136D02*
G01*
X123179466Y-159945136D01*
X123179466Y-160218688D01*
X123452896Y-160218688D01*
X123452896Y-159945136D01*
G37*
G36*
X123179344Y-159945136D02*
G01*
X122905914Y-159945136D01*
X122905914Y-160218688D01*
X123179344Y-160218688D01*
X123179344Y-159945136D01*
G37*
G36*
X124000000Y-160218688D02*
G01*
X123726570Y-160218688D01*
X123726570Y-160492240D01*
X124000000Y-160492240D01*
X124000000Y-160218688D01*
G37*
G36*
X122905792Y-160218688D02*
G01*
X122632362Y-160218688D01*
X122632362Y-160492240D01*
X122905792Y-160492240D01*
X122905792Y-160218688D01*
G37*
G36*
X124000000Y-160492240D02*
G01*
X123726570Y-160492240D01*
X123726570Y-160765792D01*
X124000000Y-160765792D01*
X124000000Y-160492240D01*
G37*
G36*
X122905792Y-160492240D02*
G01*
X122632362Y-160492240D01*
X122632362Y-160765792D01*
X122905792Y-160765792D01*
X122905792Y-160492240D01*
G37*
G36*
X124000000Y-160765792D02*
G01*
X123726570Y-160765792D01*
X123726570Y-161039344D01*
X124000000Y-161039344D01*
X124000000Y-160765792D01*
G37*
G36*
X123726448Y-160765792D02*
G01*
X123453018Y-160765792D01*
X123453018Y-161039344D01*
X123726448Y-161039344D01*
X123726448Y-160765792D01*
G37*
G36*
X123452896Y-160765792D02*
G01*
X123179466Y-160765792D01*
X123179466Y-161039344D01*
X123452896Y-161039344D01*
X123452896Y-160765792D01*
G37*
G36*
X123179344Y-160765792D02*
G01*
X122905914Y-160765792D01*
X122905914Y-161039344D01*
X123179344Y-161039344D01*
X123179344Y-160765792D01*
G37*
G36*
X124000000Y-161039344D02*
G01*
X123726570Y-161039344D01*
X123726570Y-161312896D01*
X124000000Y-161312896D01*
X124000000Y-161039344D01*
G37*
G36*
X124000000Y-161312896D02*
G01*
X123726570Y-161312896D01*
X123726570Y-161586448D01*
X124000000Y-161586448D01*
X124000000Y-161312896D01*
G37*
G36*
X124000000Y-161586448D02*
G01*
X123726570Y-161586448D01*
X123726570Y-161860000D01*
X124000000Y-161860000D01*
X124000000Y-161586448D01*
G37*
G36*
X122048011Y-159945136D02*
G01*
X121774581Y-159945136D01*
X121774581Y-160218688D01*
X122048011Y-160218688D01*
X122048011Y-159945136D01*
G37*
G36*
X121774459Y-159945136D02*
G01*
X121501029Y-159945136D01*
X121501029Y-160218688D01*
X121774459Y-160218688D01*
X121774459Y-159945136D01*
G37*
G36*
X121500907Y-159945136D02*
G01*
X121227477Y-159945136D01*
X121227477Y-160218688D01*
X121500907Y-160218688D01*
X121500907Y-159945136D01*
G37*
G36*
X122321563Y-160218688D02*
G01*
X122048133Y-160218688D01*
X122048133Y-160492240D01*
X122321563Y-160492240D01*
X122321563Y-160218688D01*
G37*
G36*
X121227355Y-160218688D02*
G01*
X120953925Y-160218688D01*
X120953925Y-160492240D01*
X121227355Y-160492240D01*
X121227355Y-160218688D01*
G37*
G36*
X122321563Y-160492240D02*
G01*
X122048133Y-160492240D01*
X122048133Y-160765792D01*
X122321563Y-160765792D01*
X122321563Y-160492240D01*
G37*
G36*
X122321563Y-160765792D02*
G01*
X122048133Y-160765792D01*
X122048133Y-161039344D01*
X122321563Y-161039344D01*
X122321563Y-160765792D01*
G37*
G36*
X122321563Y-161039344D02*
G01*
X122048133Y-161039344D01*
X122048133Y-161312896D01*
X122321563Y-161312896D01*
X122321563Y-161039344D01*
G37*
G36*
X122321563Y-161312896D02*
G01*
X122048133Y-161312896D01*
X122048133Y-161586448D01*
X122321563Y-161586448D01*
X122321563Y-161312896D01*
G37*
G36*
X121227355Y-161312896D02*
G01*
X120953925Y-161312896D01*
X120953925Y-161586448D01*
X121227355Y-161586448D01*
X121227355Y-161312896D01*
G37*
G36*
X122048011Y-161586448D02*
G01*
X121774581Y-161586448D01*
X121774581Y-161860000D01*
X122048011Y-161860000D01*
X122048011Y-161586448D01*
G37*
G36*
X121774459Y-161586448D02*
G01*
X121501029Y-161586448D01*
X121501029Y-161860000D01*
X121774459Y-161860000D01*
X121774459Y-161586448D01*
G37*
G36*
X121500907Y-161586448D02*
G01*
X121227477Y-161586448D01*
X121227477Y-161860000D01*
X121500907Y-161860000D01*
X121500907Y-161586448D01*
G37*
G36*
X120643126Y-159945136D02*
G01*
X120369696Y-159945136D01*
X120369696Y-160218688D01*
X120643126Y-160218688D01*
X120643126Y-159945136D01*
G37*
G36*
X120369574Y-159945136D02*
G01*
X120096144Y-159945136D01*
X120096144Y-160218688D01*
X120369574Y-160218688D01*
X120369574Y-159945136D01*
G37*
G36*
X120096022Y-159945136D02*
G01*
X119822592Y-159945136D01*
X119822592Y-160218688D01*
X120096022Y-160218688D01*
X120096022Y-159945136D01*
G37*
G36*
X119822470Y-159945136D02*
G01*
X119549040Y-159945136D01*
X119549040Y-160218688D01*
X119822470Y-160218688D01*
X119822470Y-159945136D01*
G37*
G36*
X120643126Y-160218688D02*
G01*
X120369696Y-160218688D01*
X120369696Y-160492240D01*
X120643126Y-160492240D01*
X120643126Y-160218688D01*
G37*
G36*
X119548918Y-160218688D02*
G01*
X119275488Y-160218688D01*
X119275488Y-160492240D01*
X119548918Y-160492240D01*
X119548918Y-160218688D01*
G37*
G36*
X120643126Y-160492240D02*
G01*
X120369696Y-160492240D01*
X120369696Y-160765792D01*
X120643126Y-160765792D01*
X120643126Y-160492240D01*
G37*
G36*
X119548918Y-160492240D02*
G01*
X119275488Y-160492240D01*
X119275488Y-160765792D01*
X119548918Y-160765792D01*
X119548918Y-160492240D01*
G37*
G36*
X120643126Y-160765792D02*
G01*
X120369696Y-160765792D01*
X120369696Y-161039344D01*
X120643126Y-161039344D01*
X120643126Y-160765792D01*
G37*
G36*
X120369574Y-160765792D02*
G01*
X120096144Y-160765792D01*
X120096144Y-161039344D01*
X120369574Y-161039344D01*
X120369574Y-160765792D01*
G37*
G36*
X120096022Y-160765792D02*
G01*
X119822592Y-160765792D01*
X119822592Y-161039344D01*
X120096022Y-161039344D01*
X120096022Y-160765792D01*
G37*
G36*
X119822470Y-160765792D02*
G01*
X119549040Y-160765792D01*
X119549040Y-161039344D01*
X119822470Y-161039344D01*
X119822470Y-160765792D01*
G37*
G36*
X120643126Y-161039344D02*
G01*
X120369696Y-161039344D01*
X120369696Y-161312896D01*
X120643126Y-161312896D01*
X120643126Y-161039344D01*
G37*
G36*
X119548918Y-161039344D02*
G01*
X119275488Y-161039344D01*
X119275488Y-161312896D01*
X119548918Y-161312896D01*
X119548918Y-161039344D01*
G37*
G36*
X120643126Y-161312896D02*
G01*
X120369696Y-161312896D01*
X120369696Y-161586448D01*
X120643126Y-161586448D01*
X120643126Y-161312896D01*
G37*
G36*
X119548918Y-161312896D02*
G01*
X119275488Y-161312896D01*
X119275488Y-161586448D01*
X119548918Y-161586448D01*
X119548918Y-161312896D01*
G37*
G36*
X120643126Y-161586448D02*
G01*
X120369696Y-161586448D01*
X120369696Y-161860000D01*
X120643126Y-161860000D01*
X120643126Y-161586448D01*
G37*
G36*
X120369574Y-161586448D02*
G01*
X120096144Y-161586448D01*
X120096144Y-161860000D01*
X120369574Y-161860000D01*
X120369574Y-161586448D01*
G37*
G36*
X120096022Y-161586448D02*
G01*
X119822592Y-161586448D01*
X119822592Y-161860000D01*
X120096022Y-161860000D01*
X120096022Y-161586448D01*
G37*
G36*
X119822470Y-161586448D02*
G01*
X119549040Y-161586448D01*
X119549040Y-161860000D01*
X119822470Y-161860000D01*
X119822470Y-161586448D01*
G37*
G36*
X117577390Y-160492240D02*
G01*
X117303960Y-160492240D01*
X117303960Y-160765792D01*
X117577390Y-160765792D01*
X117577390Y-160492240D01*
G37*
G36*
X117303838Y-160492240D02*
G01*
X117030408Y-160492240D01*
X117030408Y-160765792D01*
X117303838Y-160765792D01*
X117303838Y-160492240D01*
G37*
G36*
X117030286Y-160492240D02*
G01*
X116756856Y-160492240D01*
X116756856Y-160765792D01*
X117030286Y-160765792D01*
X117030286Y-160492240D01*
G37*
G36*
X116756734Y-160492240D02*
G01*
X116483304Y-160492240D01*
X116483304Y-160765792D01*
X116756734Y-160765792D01*
X116756734Y-160492240D01*
G37*
G36*
X116483182Y-160492240D02*
G01*
X116209752Y-160492240D01*
X116209752Y-160765792D01*
X116483182Y-160765792D01*
X116483182Y-160492240D01*
G37*
G36*
X117577390Y-161039344D02*
G01*
X117303960Y-161039344D01*
X117303960Y-161312896D01*
X117577390Y-161312896D01*
X117577390Y-161039344D01*
G37*
G36*
X117303838Y-161039344D02*
G01*
X117030408Y-161039344D01*
X117030408Y-161312896D01*
X117303838Y-161312896D01*
X117303838Y-161039344D01*
G37*
G36*
X117030286Y-161039344D02*
G01*
X116756856Y-161039344D01*
X116756856Y-161312896D01*
X117030286Y-161312896D01*
X117030286Y-161039344D01*
G37*
G36*
X116756734Y-161039344D02*
G01*
X116483304Y-161039344D01*
X116483304Y-161312896D01*
X116756734Y-161312896D01*
X116756734Y-161039344D01*
G37*
G36*
X116483182Y-161039344D02*
G01*
X116209752Y-161039344D01*
X116209752Y-161312896D01*
X116483182Y-161312896D01*
X116483182Y-161039344D01*
G37*
G36*
X113690997Y-159945136D02*
G01*
X113417568Y-159945136D01*
X113417568Y-160218688D01*
X113690997Y-160218688D01*
X113690997Y-159945136D01*
G37*
G36*
X113964549Y-160218688D02*
G01*
X113691120Y-160218688D01*
X113691120Y-160492240D01*
X113964549Y-160492240D01*
X113964549Y-160218688D01*
G37*
G36*
X114238101Y-160492240D02*
G01*
X113964672Y-160492240D01*
X113964672Y-160765792D01*
X114238101Y-160765792D01*
X114238101Y-160492240D01*
G37*
G36*
X114511653Y-160765792D02*
G01*
X114238224Y-160765792D01*
X114238224Y-161039344D01*
X114511653Y-161039344D01*
X114511653Y-160765792D01*
G37*
G36*
X114238101Y-161039344D02*
G01*
X113964672Y-161039344D01*
X113964672Y-161312896D01*
X114238101Y-161312896D01*
X114238101Y-161039344D01*
G37*
G36*
X113964549Y-161312896D02*
G01*
X113691120Y-161312896D01*
X113691120Y-161586448D01*
X113964549Y-161586448D01*
X113964549Y-161312896D01*
G37*
G36*
X113690997Y-161586448D02*
G01*
X113417568Y-161586448D01*
X113417568Y-161860000D01*
X113690997Y-161860000D01*
X113690997Y-161586448D01*
G37*
G36*
X112839078Y-159945136D02*
G01*
X112565648Y-159945136D01*
X112565648Y-160218688D01*
X112839078Y-160218688D01*
X112839078Y-159945136D01*
G37*
G36*
X112565526Y-159945136D02*
G01*
X112292096Y-159945136D01*
X112292096Y-160218688D01*
X112565526Y-160218688D01*
X112565526Y-159945136D01*
G37*
G36*
X112291974Y-159945136D02*
G01*
X112018545Y-159945136D01*
X112018545Y-160218688D01*
X112291974Y-160218688D01*
X112291974Y-159945136D01*
G37*
G36*
X113112630Y-160218688D02*
G01*
X112839200Y-160218688D01*
X112839200Y-160492240D01*
X113112630Y-160492240D01*
X113112630Y-160218688D01*
G37*
G36*
X112018422Y-160218688D02*
G01*
X111744993Y-160218688D01*
X111744993Y-160492240D01*
X112018422Y-160492240D01*
X112018422Y-160218688D01*
G37*
G36*
X112018422Y-160492240D02*
G01*
X111744993Y-160492240D01*
X111744993Y-160765792D01*
X112018422Y-160765792D01*
X112018422Y-160492240D01*
G37*
G36*
X112565526Y-160765792D02*
G01*
X112292096Y-160765792D01*
X112292096Y-161039344D01*
X112565526Y-161039344D01*
X112565526Y-160765792D01*
G37*
G36*
X112291974Y-160765792D02*
G01*
X112018545Y-160765792D01*
X112018545Y-161039344D01*
X112291974Y-161039344D01*
X112291974Y-160765792D01*
G37*
G36*
X112018422Y-161039344D02*
G01*
X111744993Y-161039344D01*
X111744993Y-161312896D01*
X112018422Y-161312896D01*
X112018422Y-161039344D01*
G37*
G36*
X113112630Y-161312896D02*
G01*
X112839200Y-161312896D01*
X112839200Y-161586448D01*
X113112630Y-161586448D01*
X113112630Y-161312896D01*
G37*
G36*
X112018422Y-161312896D02*
G01*
X111744993Y-161312896D01*
X111744993Y-161586448D01*
X112018422Y-161586448D01*
X112018422Y-161312896D01*
G37*
G36*
X112839078Y-161586448D02*
G01*
X112565648Y-161586448D01*
X112565648Y-161860000D01*
X112839078Y-161860000D01*
X112839078Y-161586448D01*
G37*
G36*
X112565526Y-161586448D02*
G01*
X112292096Y-161586448D01*
X112292096Y-161860000D01*
X112565526Y-161860000D01*
X112565526Y-161586448D01*
G37*
G36*
X112291974Y-161586448D02*
G01*
X112018545Y-161586448D01*
X112018545Y-161860000D01*
X112291974Y-161860000D01*
X112291974Y-161586448D01*
G37*
M02*
