M48
; DRILL file {KiCad 9.0.2} date 2026-01-22T14:34:07+0530
; FORMAT={-:-/ absolute / metric / decimal}
; #@! TF.CreationDate,2026-01-22T14:34:07+05:30
; #@! TF.GenerationSoftware,Kicad,Pcbnew,9.0.2
; #@! TF.FileFunction,Plated,1,2,PTH
FMAT,2
METRIC
; #@! TA.AperFunction,Plated,PTH,ComponentDrill
T1C0.800
; #@! TA.AperFunction,Plated,PTH,ComponentDrill
T2C0.900
; #@! TA.AperFunction,Plated,PTH,ComponentDrill
T3C2.200
%
G90
G05
T1
X66.6Y-162.0
X68.6Y-162.0
X69.445Y-152.8
X71.445Y-152.8
X78.395Y-155.99
X78.395Y-158.53
X78.395Y-161.07
X78.395Y-163.61
X86.015Y-155.99
X86.015Y-158.53
X86.015Y-161.07
X86.015Y-163.61
X95.4Y-152.2
X95.59Y-158.8
X98.51Y-139.795
X98.51Y-147.415
X101.05Y-139.795
X101.05Y-147.415
X103.02Y-152.2
X103.21Y-158.8
X103.59Y-139.795
X103.59Y-147.415
X106.13Y-139.795
X106.13Y-147.415
X108.67Y-139.795
X108.67Y-147.415
X111.21Y-139.795
X111.21Y-147.415
X113.75Y-139.795
X113.75Y-147.415
X116.29Y-139.795
X116.29Y-147.415
X119.78Y-128.6
X127.4Y-128.6
T2
X82.26Y-123.0
X84.8Y-123.0
X87.66Y-120.4
X87.66Y-125.2
X90.2Y-120.4
X90.2Y-125.2
X93.06Y-115.6
X93.06Y-120.4
X93.06Y-125.2
X93.06Y-130.0
X95.6Y-115.6
X95.6Y-120.4
X95.6Y-125.2
X95.6Y-130.0
X99.0Y-122.8
X101.54Y-122.8
X104.2Y-122.8
X106.74Y-122.8
X109.4Y-122.8
X111.94Y-122.8
T3
X96.85Y-165.4
X102.2Y-165.4
M30
